<svg width="16" height="16" viewBox="0 0 16 16" fill="none" xmlns="http://www.w3.org/2000/svg">
<path d="M2.0785 8.31125C1.97383 8.11725 1.97383 7.88192 2.0785 7.68792C3.33983 5.35525 5.66983 3.33325 7.99983 3.33325C10.3298 3.33325 12.6598 5.35525 13.9212 7.68859C14.0258 7.88259 14.0258 8.11792 13.9212 8.31192C12.6598 10.6446 10.3298 12.6666 7.99983 12.6666C5.66983 12.6666 3.33983 10.6446 2.0785 8.31125V8.31125Z" stroke="#949394" stroke-width="1.5" stroke-linecap="round" stroke-linejoin="round"/>
<path d="M9.41421 6.58579C10.1953 7.36683 10.1953 8.63316 9.41421 9.41421C8.63316 10.1953 7.36683 10.1953 6.58579 9.41421C5.80474 8.63316 5.80474 7.36683 6.58579 6.58579C7.36683 5.80474 8.63316 5.80474 9.41421 6.58579Z" stroke="#949394" stroke-width="1.429" stroke-linecap="round" stroke-linejoin="round"/>
</svg>
