<svg width="24" height="24" viewBox="0 0 24 24" fill="none" xmlns="http://www.w3.org/2000/svg">
<path d="M5.49999 21V19V21ZM5.49999 14V3V14ZM12 14.5V21V14.5ZM12 3V9.5V3ZM18.5 21V10V21ZM20.2678 5.73223C21.2441 6.70854 21.2441 8.29145 20.2678 9.26776C19.2915 10.2441 17.7086 10.2441 16.7323 9.26776C15.756 8.29145 15.756 6.70854 16.7323 5.73223C17.7086 4.75592 19.2915 4.75592 20.2678 5.73223V5.73223ZM7.26776 14.7322C8.24407 15.7085 8.24407 17.2914 7.26776 18.2677C6.29145 19.244 4.70854 19.244 3.73223 18.2677C2.75592 17.2914 2.75592 15.7085 3.73223 14.7322C4.70854 13.7559 6.29145 13.7559 7.26776 14.7322V14.7322ZM13.7678 10.2322C14.7441 11.2085 14.7441 12.7914 13.7678 13.7677C12.7915 14.744 11.2086 14.744 10.2323 13.7677C9.25595 12.7914 9.25595 11.2085 10.2323 10.2322C11.2086 9.25589 12.7915 9.25589 13.7678 10.2322Z" stroke="#231F1D" stroke-width="1.5" stroke-linecap="round" stroke-linejoin="round"/>
</svg>
