<svg width="24" height="24" viewBox="0 0 24 24" fill="none" xmlns="http://www.w3.org/2000/svg">
<path d="M4.54588 9.84301L5.99988 9.34301V19.5C5.99988 20.3284 6.67145 21 7.49988 21H16.4999C17.3283 21 17.9999 20.3284 17.9999 19.5V9.34301L19.4539 9.844C19.9281 10.0064 20.4493 9.79263 20.6729 9.344L21.8939 6.9L21.9033 6.88046C22.1383 6.38067 21.9237 5.785 21.4239 5.55L16.8069 3.38C16.275 3.12998 15.6946 3.00024 15.1069 3H8.89388C8.3055 2.99995 7.72436 3.1297 7.19188 3.38L2.57488 5.55L2.55577 5.55925C2.0613 5.80526 1.85988 6.40553 2.10588 6.9L3.32688 9.34301C3.55047 9.79163 4.07166 10.0054 4.54588 9.84301Z" stroke="#231F1D" stroke-width="1.5" stroke-linecap="round" stroke-linejoin="round"/>
<path d="M15.5 3C15.5 4.933 13.933 6.5 12 6.5V6.5C10.067 6.5 8.5 4.933 8.5 3V3" stroke="#231F1D" stroke-width="1.5" stroke-linecap="round" stroke-linejoin="round"/>
</svg>
