<svg width="24" height="24" viewBox="0 0 24 24" fill="none" xmlns="http://www.w3.org/2000/svg">
<path d="M3 12C3 16.971 7.029 21 12 21C16.971 21 21 16.971 21 12C21 7.029 16.971 3 12 3C7.029 3 3 7.029 3 12Z" fill="#F4F3F3" stroke="#F4F3F3" stroke-width="1.5" stroke-linecap="round" stroke-linejoin="round"/>
<path d="M11.996 7.25C11.444 7.25 10.996 7.69799 11 8.24998C11 8.80196 11.448 9.24995 12 9.24995C12.552 9.24995 13 8.80196 13 8.24998C13 7.69799 12.552 7.25 11.996 7.25Z" fill="#949394"/>
<path d="M12 12V17V12Z" fill="#949394"/>
<path d="M12 12V17" stroke="#949394" stroke-width="1.5" stroke-linecap="round" stroke-linejoin="round"/>
</svg>
