<svg width="32" height="32" viewBox="0 0 32 32" fill="none" xmlns="http://www.w3.org/2000/svg">
<path d="M5.604 29.6667C5.05172 29.6667 4.604 30.1145 4.604 30.6667C4.604 31.219 5.05172 31.6667 5.604 31.6667V29.6667ZM30.2707 7.33342C30.823 7.33342 31.2707 6.8857 31.2707 6.33342C31.2707 5.78113 30.823 5.33341 30.2707 5.33341V7.33342ZM5.27067 11.0001C5.27067 11.5524 5.71839 12.0001 6.27067 12.0001C6.82296 12.0001 7.27067 11.5524 7.27067 11.0001H5.27067ZM7.27067 1.66675C7.27067 1.11446 6.82295 0.666748 6.27067 0.666748C5.71838 0.666748 5.27067 1.11446 5.27067 1.66675L7.27067 1.66675ZM10.9373 7.33342C11.4896 7.33342 11.9373 6.8857 11.9373 6.33341C11.9373 5.78113 11.4896 5.33341 10.9373 5.33341V7.33342ZM1.604 5.33342C1.05172 5.33342 0.604004 5.78113 0.604004 6.33342C0.604004 6.8857 1.05172 7.33342 1.604 7.33342L1.604 5.33342ZM5.93734 29.6667H5.604V31.6667H5.93734V29.6667ZM16.9373 18.6667C16.9373 24.7419 12.0125 29.6667 5.93734 29.6667V31.6667C13.117 31.6667 18.9373 25.8465 18.9373 18.6667H16.9373ZM30.2707 5.33341C22.9069 5.33341 16.9373 11.303 16.9373 18.6667H18.9373C18.9373 12.4075 24.0114 7.33342 30.2707 7.33342V5.33341ZM7.27067 11.0001L7.27067 1.66675L5.27067 1.66675L5.27067 11.0001H7.27067ZM10.9373 5.33341L1.604 5.33342L1.604 7.33342L10.9373 7.33342V5.33341Z" fill="#565656"/>
</svg>
